<svg width="1024" height="1024" viewBox="0 0 1024 1024" fill="none" xmlns="http://www.w3.org/2000/svg">
<g clip-path="url(#clip0_241_2)">
<path d="M141.326 616.76L19.904 514.808L142.034 413.21L166.46 441.176L76.898 514.454L166.46 587.732L141.326 616.76ZM185.084 711.632L329.162 390.2H375.89L231.812 711.632H185.084ZM405.526 638V390.2L454.024 382.058V531.092L533.674 453.566H588.544L501.46 538.172L593.854 638H531.904L454.024 553.748V638H405.526ZM606.725 638V453.566H655.223V474.098C661.123 466.074 668.203 459.938 676.463 455.69C684.723 451.442 694.045 449.318 704.429 449.318C713.397 449.554 720.123 450.97 724.607 453.566V496.046C721.067 494.394 717.173 493.214 712.925 492.506C708.677 491.562 704.311 491.09 699.827 491.09C690.387 491.09 681.773 493.45 673.985 498.17C666.197 502.89 659.943 509.616 655.223 518.348V638H606.725ZM751.229 638V453.566H799.727V638H751.229ZM775.301 431.618C767.749 431.618 761.259 428.904 755.831 423.476C750.403 418.048 747.689 411.558 747.689 404.006C747.689 396.218 750.403 389.728 755.831 384.536C761.259 379.108 767.749 376.394 775.301 376.394C783.089 376.394 789.579 379.108 794.771 384.536C800.199 389.728 802.913 396.218 802.913 404.006C802.913 411.558 800.199 418.048 794.771 423.476C789.579 428.904 783.089 431.618 775.301 431.618ZM882.613 412.856L1004.04 514.808L881.905 616.406L857.479 588.44L947.041 515.162L857.479 441.884L882.613 412.856Z" fill="white"/>
</g>
<defs>
<clipPath id="clip0_241_2">
<rect width="1024" height="1024" fill="white"/>
</clipPath>
</defs>
</svg>
